<?xml version="1.0" encoding="utf-8"?>
<!-- Generator: Adobe Illustrator 18.1.1, SVG Export Plug-In . SVG Version: 6.00 Build 0)  -->
<svg version="1.1" id="main" xmlns:mondrian="http://mondrian.io/xml"
	 xmlns="http://www.w3.org/2000/svg" xmlns:xlink="http://www.w3.org/1999/xlink" x="0px" y="0px" viewBox="-44 0 286 61"
	 enable-background="new -44 0 286 61" xml:space="preserve">
<path id="Shape" fill="#4B5A63" d="M-15.7,39.9c-0.4-1.4-0.7-3.1-0.7-5.4c0-2.3,0.2-4,0.7-5.4c1.3-3.9,4.6-6,8.9-6
	c3.2,0,5.8,1.3,7.5,3.4c0.1,0.2,0.2,0.5,0,0.6l-2.8,2.5c-0.2,0.2-0.4,0.1-0.6-0.1c-1.1-1.2-2.2-1.9-4-1.9c-1.9,0-3.4,1-4,2.9
	c-0.4,1.1-0.4,2.4-0.4,4c0,1.7,0.1,3,0.4,4.1c0.6,1.9,2.1,2.8,4,2.8c1.8,0,2.9-0.7,4-1.9c0.2-0.2,0.4-0.2,0.6,0L0.6,42
	c0.2,0.2,0.2,0.4,0,0.6c-1.7,2-4.3,3.4-7.5,3.4C-11.2,45.9-14.5,43.8-15.7,39.9"/>
<path id="Shape_1_" fill="#4B5A63" d="M82.2,39.9c-0.4-1.4-0.7-3.1-0.7-5.4c0-2.3,0.2-4,0.7-5.4c1.3-3.9,4.6-6,8.9-6
	c3.2,0,5.8,1.3,7.5,3.4c0.1,0.2,0.2,0.5,0,0.6l-2.8,2.5c-0.2,0.2-0.4,0.1-0.6-0.1c-1.1-1.2-2.2-1.9-4-1.9c-1.9,0-3.4,1-4,2.9
	c-0.4,1.1-0.4,2.4-0.4,4c0,1.7,0.1,3,0.4,4.1c0.6,1.9,2.1,2.8,4,2.8c1.8,0,2.9-0.7,4-1.9c0.2-0.2,0.4-0.2,0.6,0l2.8,2.5
	c0.2,0.2,0.2,0.4,0,0.6c-1.7,2-4.3,3.4-7.5,3.4C86.7,45.9,83.4,43.8,82.2,39.9"/>
<path id="Shape_2_" fill="#4B5A63" d="M195.3,45.5c-0.3,0-0.4-0.2-0.4-0.5V32.4c0-2.8-1.4-4.8-4.1-4.8c-2.6,0-4.1,1.9-4.1,4.8V45
	c0,0.3-0.2,0.5-0.4,0.5h-4.1c-0.3,0-0.4-0.2-0.4-0.5V32.4c0-2.8-1.4-4.8-4.1-4.8c-2.6,0-4.1,1.9-4.1,4.8V45c0,0.3-0.2,0.5-0.4,0.5
	h-4.1c-0.3,0-0.4-0.2-0.4-0.5V24.1c0-0.3,0.2-0.5,0.4-0.5h4.1c0.3,0,0.4,0.2,0.4,0.5v1.6h0c0.9-1.4,2.8-2.5,5.7-2.5
	c2.6,0,4.6,1,5.9,2.9h0c1.7-1.8,3.8-2.9,6.9-2.9c5,0,7.8,3.4,7.8,8.1V45c0,0.3-0.2,0.5-0.4,0.5L195.3,45.5L195.3,45.5z"/>
<path id="Shape_3_" fill="#4B5A63" d="M206.1,53.6c-0.3,0-0.4-0.2-0.4-0.5v-3.6c0-0.3,0.2-0.5,0.4-0.5h0.8c1.7,0,2.6-0.8,3.2-2.6
	l0.6-1.9l-7.9-20.6c-0.1-0.3,0.1-0.5,0.4-0.5h4.4c0.3,0,0.4,0.2,0.5,0.5l4.9,14.3h0.1l4.7-14.3c0.1-0.3,0.3-0.5,0.5-0.5h4.3
	c0.3,0,0.5,0.2,0.4,0.5l-8.2,22.7c-1.9,5.2-3.7,6.8-7.3,6.8H206.1L206.1,53.6z"/>
<path id="Shape_4_" fill="#4B5A63" d="M4.8,39.9c-0.5-1.5-0.7-3-0.7-5.4c0-2.4,0.2-3.8,0.7-5.4c1.2-3.8,4.5-6,8.9-6
	c4.3,0,7.7,2.2,8.9,6c0.5,1.5,0.7,3,0.7,5.4c0,2.4-0.2,3.8-0.7,5.4c-1.2,3.8-4.5,6-8.9,6C9.3,45.9,6,43.7,4.8,39.9 M17.7,38.6
	c0.4-1.1,0.4-2.2,0.4-4c0-1.9-0.1-2.8-0.4-4c-0.6-1.8-2-2.9-4-2.9c-2,0-3.4,1-4.1,2.9c-0.4,1.2-0.4,2.2-0.4,4c0,1.9,0.1,2.9,0.4,4
	c0.6,1.8,2.1,2.8,4.1,2.8C15.7,41.4,17.1,40.4,17.7,38.6"/>
<path id="Shape_5_" fill="#4B5A63" d="M110.6,23.1c-3.5,0-5.9,0.9-7.7,2.1c-0.2,0.1-0.2,0.4-0.1,0.6l1.7,3c0.1,0.2,0.4,0.3,0.6,0.1
	c1-0.8,2.5-1.5,4.9-1.5c3.5,0,4.7,1.1,4.8,3.4l0,0v0c0,0.1,0,0.1,0,0.2v7.1c0,2.5-1.7,3.7-4.8,3.7c-2.4,0-3.7-0.9-3.7-2.7
	c0-2,1.4-2.9,4.7-2.9l1,0c0.3,0,0.4-0.2,0.4-0.5v-2.9c0-0.3-0.2-0.5-0.4-0.5h-0.2l-1.6,0c-5.3,0-8.6,2.2-8.6,6.9
	c0,4.6,3.3,6.7,7.3,6.7c3,0,5.1-1,6.1-2.5h0V45c0,0.3,0.2,0.5,0.4,0.5h3.8c0.3,0,0.4-0.2,0.4-0.5V30.7
	C119.6,25.4,117.1,23.1,110.6,23.1"/>
<path id="Shape_6_" fill="#4B5A63" d="M57,32.4c-0.1,0-0.2,0.1-0.2,0.2v0.1v0.4v2.4v0.3V36c0,0.1,0.1,0.2,0.2,0.2h0.1h11
	c0.3,0,0.5-0.2,0.5-0.4c0-3.5-0.2-5-0.7-6.6c-1.2-3.7-4.4-6-8.9-6c-4.3,0-7.6,2.2-8.8,6c-0.4,1.4-0.7,3.1-0.7,5.4
	c0,2.3,0.3,3.9,0.8,5.3c1.2,3.8,4.4,6.1,9,6.1c4,0,7-1.5,8.9-3.7c0.2-0.2,0.2-0.5,0-0.6l-2.6-2.4c-0.2-0.2-0.4-0.1-0.7,0.1
	c-1.1,1.2-2.6,2.1-5.1,2.1c-2.4,0-4.1-1.2-4.8-3.3c-0.1-0.3-0.2-0.6-0.3-0.9l0,0c-0.2-0.9-0.3-1.8-0.3-3.1c0-1.2,0.1-2,0.3-3
	c0,0,0,0,0,0c0,0,0,0,0,0l0,0c0-0.2,0.1-0.5,0.2-0.7c0.6-1.8,2.2-2.8,4.3-2.8c2,0,3.6,1,4.2,2.8c0.2,0.5,0.3,1.1,0.3,1.9
	c0,0.2-0.1,0.3-0.3,0.3h-5.9l0,0L57,32.4L57,32.4z"/>
<path id="Shape_7_" fill="#4B5A63" d="M45.3,14.7h-4.1c-0.3,0-0.4,0.2-0.4,0.4v10.6h0v8.7c0,0,0,0,0,0.1c0,0,0,0,0,0.1v1.2h0
	c0,1.2-0.2,2.1-0.4,2.8c-0.6,1.8-2,2.8-4,2.8c-2,0-3.4-1-4-2.8c-0.3-1-0.4-2.1-0.4-4.1c0-2,0.1-3.1,0.4-4.1c0.6-1.8,1.9-2.8,3.9-2.8
	h1.8c0.1,0,0.1-0.1,0.1-0.2l0-4.1c0-0.1-0.1-0.2-0.2-0.2l-1.4,0l-1.6,0v0c-3.6,0-6.2,1.8-7.4,5.2c-0.5,1.7-0.8,3.2-0.8,6.2
	c0,2.9,0.2,4.5,0.8,6.1c1.1,3.5,3.8,5.2,7.5,5.2c2.9,0,4.7-1.1,5.7-2.6h0V45c0,0.3,0.2,0.5,0.4,0.5h4.1c0.3,0,0.4-0.2,0.4-0.5V15.1
	C45.8,14.8,45.6,14.7,45.3,14.7"/>
<path id="Shape_8_" fill="#4B5A63" d="M153.2,32.4c-0.1,0-0.2,0.1-0.2,0.2v0.1v0.4v2.4v0.3V36c0,0.1,0.1,0.2,0.2,0.2h0.1h11
	c0.3,0,0.5-0.2,0.5-0.4c0-3.5-0.2-5-0.7-6.6c-1.2-3.7-4.4-6-8.9-6c-4.3,0-7.6,2.2-8.8,6c-0.4,1.4-0.7,3.1-0.7,5.4
	c0,2.3,0.3,3.9,0.8,5.3c1.2,3.8,4.4,6.1,9,6.1c4,0,7-1.5,8.9-3.7c0.2-0.2,0.2-0.5,0-0.6l-2.6-2.4c-0.2-0.2-0.4-0.1-0.7,0.1
	c-1.1,1.2-2.6,2.1-5.1,2.1c-2.4,0-4.1-1.2-4.8-3.3c-0.1-0.3-0.2-0.6-0.3-0.9l0,0c-0.2-0.9-0.3-1.8-0.3-3.1c0-1.2,0.1-2,0.3-3
	c0,0,0,0,0,0c0,0,0,0,0,0v0c0-0.2,0.1-0.5,0.2-0.7c0.6-1.8,2.2-2.8,4.3-2.8c2,0,3.6,1,4.2,2.8c0.2,0.5,0.3,1.1,0.3,1.9
	c0,0.2-0.1,0.3-0.3,0.3h-5.9v0L153.2,32.4L153.2,32.4z"/>
<path id="Shape_9_" fill="#4B5A63" d="M141.7,14.7h-4.1c-0.3,0-0.4,0.2-0.4,0.5v10.6v8.8v0.1v0.1v1.2h0c0,1.3-0.2,2.1-0.4,2.8
	c-0.6,1.8-2,2.8-4,2.8c-2,0-3.4-1-4-2.8c-0.3-1-0.4-2.1-0.4-4.1c0-2,0.1-3.1,0.4-4.1c0.6-1.8,1.9-2.8,3.9-2.8l1.8,0
	c0.3,0,0.4-0.2,0.4-0.5v-3.6c0-0.3-0.2-0.5-0.4-0.5h-0.2l-2.7,0c0,0,0,0-0.1,0c0,0,0,0-0.1,0h-0.1v0c-3.6,0-6.3,1.8-7.4,5.2
	c-0.5,1.7-0.8,3.2-0.8,6.2s0.2,4.5,0.8,6.2c1.1,3.5,3.8,5.3,7.5,5.3c2.9,0,4.7-1.1,5.7-2.6h0V45c0,0.3,0.2,0.5,0.4,0.5h4.1
	c0.3,0,0.4-0.2,0.4-0.5V15.1C142.2,14.8,142,14.7,141.7,14.7"/>
<path id="Shape_10_" fill="#4B5A63" d="M81.8,51.6v4.1c0,0.3,0.2,0.5,0.4,0.5h15.3c0.3,0,0.5-0.2,0.5-0.5v-4.1
	c0-0.3-0.2-0.4-0.5-0.4H82.3C82,51.2,81.8,51.4,81.8,51.6"/>
<path id="Shape_11_" fill="#4B5A63" d="M77.9,4C77.9,4,77.9,4,77.9,4C77.9,4,77.9,4,77.9,4c-0.1-0.1-0.2-0.1-0.3-0.1h0h-103
	c0,0-0.1,0-0.1,0c0,0,0,0,0,0c0,0,0,0-0.1,0c0,0,0,0,0,0c-0.2,0.1-0.3,0.2-0.3,0.4v0v51.5v0c0,0.2,0.1,0.3,0.2,0.4c0,0,0,0,0,0v0
	c0.1,0,0.2,0.1,0.3,0.1h103h0c0.2,0,0.3-0.1,0.4-0.2c0.1-0.1,0.1-0.2,0.1-0.3v0V4.3v0C78.1,4.2,78,4.1,77.9,4L77.9,4 M-20.4,51.2
	C-20.4,51.2-20.4,51.2-20.4,51.2c-0.1,0-0.1,0-0.1,0c0,0,0,0-0.1,0c0,0,0,0,0,0c-0.2-0.1-0.3-0.2-0.3-0.4V13.4V9.3
	c0-0.2,0.1-0.3,0.3-0.4c0,0,0,0,0,0c0,0,0.1,0,0.1,0c0,0,0.1,0,0.1,0h92.9c0,0,0.1,0,0.1,0c0,0,0,0,0,0c0,0,0,0,0.1,0c0,0,0,0,0,0
	C72.9,9,73,9.1,73,9.3v41.4c0,0.2-0.1,0.3-0.3,0.4c0,0,0,0,0,0c0,0,0,0-0.1,0c0,0,0,0,0,0c0,0-0.1,0-0.1,0H-20.4L-20.4,51.2z"/>
</svg>
